<?xml version="1.0" encoding="utf-8"?>
<!-- Generator: Adobe Illustrator 21.0.2, SVG Export Plug-In . SVG Version: 6.00 Build 0)  -->
<svg version="1.1" xmlns="http://www.w3.org/2000/svg" xmlns:xlink="http://www.w3.org/1999/xlink" x="0px" y="0px"
	 viewBox="0 0 175 175" style="enable-background:new 0 0 175 175;" xml:space="preserve">
<style type="text/css">
	.st0{fill:#FB9972;}
	.st1{fill:none;}
	.st2{fill:#FFFFFF;}
	.st3{fill:none;stroke:#FFFFFF;stroke-width:6.66;stroke-miterlimit:10;}
	.st4{fill:none;stroke:#00C3FF;stroke-width:6.66;stroke-miterlimit:10;}
</style>
<g id="Круг_1_">
	<path class="st0" d="M133.4,91.4h3.4v6.1c-0.5,1.1-1.1,2-1.9,2.7c-0.8,0.7-1.7,1.1-2.7,1.1c-1,0-1.7-0.4-2.3-1.2
		c-0.5-0.8-0.8-1.8-0.8-3.2c0-1.5,0.4-2.8,1.1-3.9C130.9,92,132,91.4,133.4,91.4z"/>
	<path class="st0" d="M45.2,66.9h-0.1l-3.8,19.1H49L45.2,66.9z M81,79.5c-0.8-2.4-2-3.5-3.6-3.5c-1,0-1.9,0.3-2.6,1
		c-0.7,0.7-1.3,1.6-1.7,2.9v17.6c0.4,1.1,1,2,1.7,2.6c0.7,0.6,1.6,0.9,2.6,0.9c1.6,0,2.8-1,3.5-3.1c0.8-2,1.1-4.8,1.1-8.4v-0.8
		C82.1,85,81.7,81.9,81,79.5z M81,79.5c-0.8-2.4-2-3.5-3.6-3.5c-1,0-1.9,0.3-2.6,1c-0.7,0.7-1.3,1.6-1.7,2.9v17.6
		c0.4,1.1,1,2,1.7,2.6c0.7,0.6,1.6,0.9,2.6,0.9c1.6,0,2.8-1,3.5-3.1c0.8-2,1.1-4.8,1.1-8.4v-0.8C82.1,85,81.7,81.9,81,79.5z
		 M45.2,66.9h-0.1l-3.8,19.1H49L45.2,66.9z M45.2,66.9h-0.1l-3.8,19.1H49L45.2,66.9z M81,79.5c-0.8-2.4-2-3.5-3.6-3.5
		c-1,0-1.9,0.3-2.6,1c-0.7,0.7-1.3,1.6-1.7,2.9v17.6c0.4,1.1,1,2,1.7,2.6c0.7,0.6,1.6,0.9,2.6,0.9c1.6,0,2.8-1,3.5-3.1
		c0.8-2,1.1-4.8,1.1-8.4v-0.8C82.1,85,81.7,81.9,81,79.5z M45.2,66.9h-0.1l-3.8,19.1H49L45.2,66.9z M81,79.5c-0.8-2.4-2-3.5-3.6-3.5
		c-1,0-1.9,0.3-2.6,1c-0.7,0.7-1.3,1.6-1.7,2.9v17.6c0.4,1.1,1,2,1.7,2.6c0.7,0.6,1.6,0.9,2.6,0.9c1.6,0,2.8-1,3.5-3.1
		c0.8-2,1.1-4.8,1.1-8.4v-0.8C82.1,85,81.7,81.9,81,79.5z M45.2,66.9h-0.1l-3.8,19.1H49L45.2,66.9z M81,79.5c-0.8-2.4-2-3.5-3.6-3.5
		c-1,0-1.9,0.3-2.6,1c-0.7,0.7-1.3,1.6-1.7,2.9v17.6c0.4,1.1,1,2,1.7,2.6c0.7,0.6,1.6,0.9,2.6,0.9c1.6,0,2.8-1,3.5-3.1
		c0.8-2,1.1-4.8,1.1-8.4v-0.8C82.1,85,81.7,81.9,81,79.5z M81,79.5c-0.8-2.4-2-3.5-3.6-3.5c-1,0-1.9,0.3-2.6,1
		c-0.7,0.7-1.3,1.6-1.7,2.9v17.6c0.4,1.1,1,2,1.7,2.6c0.7,0.6,1.6,0.9,2.6,0.9c1.6,0,2.8-1,3.5-3.1c0.8-2,1.1-4.8,1.1-8.4v-0.8
		C82.1,85,81.7,81.9,81,79.5z M45.2,66.9h-0.1l-3.8,19.1H49L45.2,66.9z M45.2,66.9h-0.1l-3.8,19.1H49L45.2,66.9z M81,79.5
		c-0.8-2.4-2-3.5-3.6-3.5c-1,0-1.9,0.3-2.6,1c-0.7,0.7-1.3,1.6-1.7,2.9v17.6c0.4,1.1,1,2,1.7,2.6c0.7,0.6,1.6,0.9,2.6,0.9
		c1.6,0,2.8-1,3.5-3.1c0.8-2,1.1-4.8,1.1-8.4v-0.8C82.1,85,81.7,81.9,81,79.5z M81,79.5c-0.8-2.4-2-3.5-3.6-3.5c-1,0-1.9,0.3-2.6,1
		c-0.7,0.7-1.3,1.6-1.7,2.9v17.6c0.4,1.1,1,2,1.7,2.6c0.7,0.6,1.6,0.9,2.6,0.9c1.6,0,2.8-1,3.5-3.1c0.8-2,1.1-4.8,1.1-8.4v-0.8
		C82.1,85,81.7,81.9,81,79.5z M45.2,66.9h-0.1l-3.8,19.1H49L45.2,66.9z M45.2,66.9h-0.1l-3.8,19.1H49L45.2,66.9z M81,79.5
		c-0.8-2.4-2-3.5-3.6-3.5c-1,0-1.9,0.3-2.6,1c-0.7,0.7-1.3,1.6-1.7,2.9v17.6c0.4,1.1,1,2,1.7,2.6c0.7,0.6,1.6,0.9,2.6,0.9
		c1.6,0,2.8-1,3.5-3.1c0.8-2,1.1-4.8,1.1-8.4v-0.8C82.1,85,81.7,81.9,81,79.5z M81,79.5c-0.8-2.4-2-3.5-3.6-3.5c-1,0-1.9,0.3-2.6,1
		c-0.7,0.7-1.3,1.6-1.7,2.9v17.6c0.4,1.1,1,2,1.7,2.6c0.7,0.6,1.6,0.9,2.6,0.9c1.6,0,2.8-1,3.5-3.1c0.8-2,1.1-4.8,1.1-8.4v-0.8
		C82.1,85,81.7,81.9,81,79.5z M45.2,66.9h-0.1l-3.8,19.1H49L45.2,66.9z M87.5,0c-11.2,0-22,2.1-31.8,6h0c-2.4,0.9-4.7,2-7,3.1
		c31.8,0.8,49.7,14.8,53.5,42.3l3.6,1.1V59H92.4v-6.5l3-1.1c-5.9-28.1-27.7-37.2-58.6-35.2h0C14.5,32,0,58.1,0,87.5
		c0,21.5,7.8,41.2,20.6,56.4h75.3v-18.4h0l-3.6-1.1v-6.5h13.3v6.5l-3,1.1h0v25h-6.7v0H26.8C42.5,165.7,63.9,175,87.5,175
		c48.3,0,87.5-39.2,87.5-87.5C175,39.2,135.8,0,87.5,0z M61,108.5H49.7V102l2.3-0.7l-1.5-7.4H39.7l-1.5,7.4l2.3,0.7v6.5H29.2V102
		l2.4-0.6l10.1-47.1h6.8l10.1,47.1L61,102V108.5z M88.8,89.5c0,6-0.8,10.7-2.5,14.3c-1.7,3.6-4.1,5.4-7.1,5.4
		c-1.3,0-2.5-0.4-3.5-1.2c-1-0.8-1.9-1.9-2.6-3.4v11.6l3.2,1.1v6.5H63.2v-6.5l3.2-1.1V76l-3.6-1.1v-6.5h9.7l0.3,4.7
		c0.7-1.7,1.6-3.1,2.6-4c1-0.9,2.2-1.4,3.6-1.4c3.1,0,5.4,1.9,7.1,5.8c1.7,3.9,2.5,9,2.5,15.4V89.5z M119.8,108.5h-9.2l-5.4-15.1
		h-2.6v7.4l3,1.1v6.5H92.4V102l3.6-1.1V76l-3.6-1.1v-6.5h13.3v6.5l-3,1.1v7.7h2.3l3.7-8.9c0.9-2.3,1.9-4.1,2.9-5.3
		c1-1.2,2.3-1.8,3.8-1.8c0.8,0,1.5,0.2,2.1,0.5c0.6,0.4,1.2,0.8,1.8,1.4l-1.1,7.5c-0.5-0.2-0.8-0.3-0.9-0.4c-0.1,0-0.3-0.1-0.6-0.1
		c-0.5,0-0.9,0.3-1.5,0.9s-1,1.3-1.3,2.2l-3.2,7.6l5.7,13.9l3.4,0.9V108.5z M145.7,108.5H138c-0.2-0.7-0.3-1.4-0.5-2.1
		c-0.1-0.7-0.2-1.4-0.3-2.1c-0.8,1.5-1.8,2.7-2.9,3.6c-1.1,0.9-2.4,1.4-3.9,1.4c-2.4,0-4.3-1.1-5.8-3.2c-1.4-2.1-2.1-5.1-2.1-8.8
		c0-3.8,0.9-6.7,2.8-8.7s4.6-3.1,8.2-3.1h3.4v-3.9c0-1.9-0.3-3.4-1-4.5c-0.7-1.1-1.7-1.6-3-1.6c-0.8,0-1.4,0.1-2,0.4
		c-0.6,0.3-1.1,0.6-1.5,1l-0.4,4.3h-5l0-8.9c1.2-1.3,2.6-2.5,4.2-3.4c1.6-0.9,3.3-1.4,5.2-1.4c3.1,0,5.5,1.2,7.5,3.7
		c1.9,2.4,2.9,5.9,2.9,10.4v16.6c0,0.6,0,1.2,0,1.8c0,0.5,0,1.1,0.1,1.6l2,0.5V108.5z M77.4,76c-1,0-1.9,0.3-2.6,1
		c-0.7,0.7-1.3,1.6-1.7,2.9v17.6c0.4,1.1,1,2,1.7,2.6c0.7,0.6,1.6,0.9,2.6,0.9c1.6,0,2.8-1,3.5-3.1c0.8-2,1.1-4.8,1.1-8.4v-0.8
		c0-3.8-0.4-6.9-1.2-9.2C80.2,77.2,79,76,77.4,76z M45.1,66.9l-3.8,19.1H49l-3.8-19.1H45.1z M45.2,66.9h-0.1l-3.8,19.1H49L45.2,66.9
		z M81,79.5c-0.8-2.4-2-3.5-3.6-3.5c-1,0-1.9,0.3-2.6,1c-0.7,0.7-1.3,1.6-1.7,2.9v17.6c0.4,1.1,1,2,1.7,2.6c0.7,0.6,1.6,0.9,2.6,0.9
		c1.6,0,2.8-1,3.5-3.1c0.8-2,1.1-4.8,1.1-8.4v-0.8C82.1,85,81.7,81.9,81,79.5z M81,79.5c-0.8-2.4-2-3.5-3.6-3.5c-1,0-1.9,0.3-2.6,1
		c-0.7,0.7-1.3,1.6-1.7,2.9v17.6c0.4,1.1,1,2,1.7,2.6c0.7,0.6,1.6,0.9,2.6,0.9c1.6,0,2.8-1,3.5-3.1c0.8-2,1.1-4.8,1.1-8.4v-0.8
		C82.1,85,81.7,81.9,81,79.5z M45.2,66.9h-0.1l-3.8,19.1H49L45.2,66.9z M45.2,66.9h-0.1l-3.8,19.1H49L45.2,66.9z M81,79.5
		c-0.8-2.4-2-3.5-3.6-3.5c-1,0-1.9,0.3-2.6,1c-0.7,0.7-1.3,1.6-1.7,2.9v17.6c0.4,1.1,1,2,1.7,2.6c0.7,0.6,1.6,0.9,2.6,0.9
		c1.6,0,2.8-1,3.5-3.1c0.8-2,1.1-4.8,1.1-8.4v-0.8C82.1,85,81.7,81.9,81,79.5z M81,79.5c-0.8-2.4-2-3.5-3.6-3.5c-1,0-1.9,0.3-2.6,1
		c-0.7,0.7-1.3,1.6-1.7,2.9v17.6c0.4,1.1,1,2,1.7,2.6c0.7,0.6,1.6,0.9,2.6,0.9c1.6,0,2.8-1,3.5-3.1c0.8-2,1.1-4.8,1.1-8.4v-0.8
		C82.1,85,81.7,81.9,81,79.5z M45.2,66.9h-0.1l-3.8,19.1H49L45.2,66.9z M45.2,66.9h-0.1l-3.8,19.1H49L45.2,66.9z M81,79.5
		c-0.8-2.4-2-3.5-3.6-3.5c-1,0-1.9,0.3-2.6,1c-0.7,0.7-1.3,1.6-1.7,2.9v17.6c0.4,1.1,1,2,1.7,2.6c0.7,0.6,1.6,0.9,2.6,0.9
		c1.6,0,2.8-1,3.5-3.1c0.8-2,1.1-4.8,1.1-8.4v-0.8C82.1,85,81.7,81.9,81,79.5z M81,79.5c-0.8-2.4-2-3.5-3.6-3.5c-1,0-1.9,0.3-2.6,1
		c-0.7,0.7-1.3,1.6-1.7,2.9v17.6c0.4,1.1,1,2,1.7,2.6c0.7,0.6,1.6,0.9,2.6,0.9c1.6,0,2.8-1,3.5-3.1c0.8-2,1.1-4.8,1.1-8.4v-0.8
		C82.1,85,81.7,81.9,81,79.5z M45.2,66.9h-0.1l-3.8,19.1H49L45.2,66.9z M81,79.5c-0.8-2.4-2-3.5-3.6-3.5c-1,0-1.9,0.3-2.6,1
		c-0.7,0.7-1.3,1.6-1.7,2.9v17.6c0.4,1.1,1,2,1.7,2.6c0.7,0.6,1.6,0.9,2.6,0.9c1.6,0,2.8-1,3.5-3.1c0.8-2,1.1-4.8,1.1-8.4v-0.8
		C82.1,85,81.7,81.9,81,79.5z M45.2,66.9h-0.1l-3.8,19.1H49L45.2,66.9z M81,79.5c-0.8-2.4-2-3.5-3.6-3.5c-1,0-1.9,0.3-2.6,1
		c-0.7,0.7-1.3,1.6-1.7,2.9v17.6c0.4,1.1,1,2,1.7,2.6c0.7,0.6,1.6,0.9,2.6,0.9c1.6,0,2.8-1,3.5-3.1c0.8-2,1.1-4.8,1.1-8.4v-0.8
		C82.1,85,81.7,81.9,81,79.5z M45.2,66.9h-0.1l-3.8,19.1H49L45.2,66.9z M81,79.5c-0.8-2.4-2-3.5-3.6-3.5c-1,0-1.9,0.3-2.6,1
		c-0.7,0.7-1.3,1.6-1.7,2.9v17.6c0.4,1.1,1,2,1.7,2.6c0.7,0.6,1.6,0.9,2.6,0.9c1.6,0,2.8-1,3.5-3.1c0.8-2,1.1-4.8,1.1-8.4v-0.8
		C82.1,85,81.7,81.9,81,79.5z M81,79.5c-0.8-2.4-2-3.5-3.6-3.5c-1,0-1.9,0.3-2.6,1c-0.7,0.7-1.3,1.6-1.7,2.9v17.6
		c0.4,1.1,1,2,1.7,2.6c0.7,0.6,1.6,0.9,2.6,0.9c1.6,0,2.8-1,3.5-3.1c0.8-2,1.1-4.8,1.1-8.4v-0.8C82.1,85,81.7,81.9,81,79.5z"/>
	<path class="st1" d="M119.8,102v6.5h-9.2l-5.4-15.1h-2.6v7.4l3,1.1v6.5H92.4V102l3.6-1.1V76l-3.6-1.1v-6.5h13.3v6.5l-3,1.1v7.7h2.3
		l3.7-8.9c0.9-2.3,1.9-4.1,2.9-5.3c1-1.2,2.3-1.8,3.8-1.8c0.8,0,1.5,0.2,2.1,0.5c0.6,0.4,1.2,0.8,1.8,1.4l-1.1,7.5
		c-0.5-0.2-0.8-0.3-0.9-0.4c-0.1,0-0.3-0.1-0.6-0.1c-0.5,0-0.9,0.3-1.5,0.9s-1,1.3-1.3,2.2l-3.2,7.6l5.7,13.9L119.8,102z"/>
	<path class="st2" d="M76.8,28.8"/>
	<path class="st3" d="M25.8,6.8"/>
	<path class="st3" d="M15.8,22.3"/>
</g>
<g id="Слой_10">
	<path class="st4" d="M99.9,65"/>
	<path class="st2" d="M98.8,27.9"/>
	<path class="st2" d="M35.5,6.3"/>
	<path class="st2" d="M98,38.8"/>
</g>
<g id="Фон">
</g>
<g id="Круг">
</g>
<g id="Слово">
</g>
<g id="Блок_К">
</g>
<g id="Слой_1">
</g>
<g id="Блок_под_К">
</g>
<g id="Слово_1_">
</g>
<g id="Слой_9">
</g>
</svg>
